<?xml version="1.0" standalone="no"?>
<!DOCTYPE svg PUBLIC "-//W3C//DTD SVG 20010904//EN"
 "http://www.w3.org/TR/2001/REC-SVG-20010904/DTD/svg10.dtd">
<svg version="1.0" xmlns="http://www.w3.org/2000/svg"
 width="260.000000pt" height="260.000000pt" viewBox="0 0 260.000000 260.000000"
 preserveAspectRatio="xMidYMid meet">
<metadata>
Created by potrace 1.11, written by Peter Selinger 2001-2013
</metadata>
<g transform="translate(0.000000,260.000000) scale(0.100000,-0.100000)"
fill="#000000" stroke="none">
<path d="M1668 2526 c-32 -32 -58 -62 -58 -65 0 -3 -25 -29 -56 -58 -31 -29
-54 -53 -50 -53 3 0 -7 -12 -22 -27 -16 -16 -80 -86 -142 -158 -63 -71 -120
-134 -127 -138 -7 -4 -13 -14 -13 -22 0 -7 -4 -15 -9 -17 -5 -1 -35 -34 -66
-72 -31 -38 -67 -80 -80 -95 -47 -52 -104 -121 -136 -165 -18 -25 -36 -46 -41
-46 -5 0 -6 -4 -3 -10 3 -5 2 -10 -3 -10 -8 0 -100 -121 -104 -138 -1 -4 -10
-15 -19 -25 -29 -32 -30 -57 -2 -83 23 -21 241 -134 259 -134 4 0 30 -11 58
-23 28 -13 88 -41 134 -62 53 -25 82 -44 82 -54 0 -9 -9 -35 -20 -59 -10 -23
-19 -45 -19 -47 0 -3 -7 -20 -15 -38 -7 -17 -48 -113 -91 -212 -42 -99 -83
-193 -90 -210 -48 -106 -169 -391 -190 -448 -10 -26 -15 -51 -11 -55 7 -6 83
69 234 230 34 37 62 70 62 72 0 3 17 22 38 43 20 22 46 50 57 64 42 52 129
154 140 164 6 6 56 64 110 130 55 66 108 126 117 133 10 7 18 18 18 24 0 6 6
16 13 22 33 27 217 269 217 284 0 5 7 15 15 22 28 23 17 63 -23 89 -57 37
-162 92 -162 85 0 -4 -6 -1 -13 5 -8 6 -52 26 -100 45 -47 20 -117 50 -154 68
-37 17 -72 32 -78 33 -13 1 -7 31 12 68 8 16 16 36 18 45 3 15 22 59 101 242
25 56 32 72 55 125 13 28 23 52 24 55 0 3 11 28 24 55 12 28 27 59 31 70 5 11
19 43 31 70 12 28 23 55 25 60 2 9 30 76 54 130 12 26 60 148 60 151 0 2 -8 2
-17 1 -10 -1 -44 -29 -75 -61z"/>
</g>
</svg>
